<svg xmlns="http://www.w3.org/2000/svg" xmlns:xlink="http://www.w3.org/1999/xlink" width="1920" zoomAndPan="magnify" viewBox="0 0 1440 809.999993" height="1080" preserveAspectRatio="xMidYMid meet" version="1.0"><defs><clipPath id="1526bfb01d"><path d="M 0 0 L 165.523438 0 L 165.523438 202.5 L 0 202.5 Z M 0 0 " clip-rule="nonzero"/></clipPath><clipPath id="30b83359a6"><path d="M 44.023438 -40.5 C -23.078125 -40.5 -77.476562 13.898438 -77.476562 81 C -77.476562 148.101562 -23.078125 202.5 44.023438 202.5 C 111.125 202.5 165.523438 148.101562 165.523438 81 C 165.523438 13.898438 111.125 -40.5 44.023438 -40.5 Z M 44.023438 -40.5 " clip-rule="nonzero"/></clipPath><clipPath id="5522683b70"><path d="M 44.023438 664.605469 L 165.523438 664.605469 L 165.523438 786.105469 L 44.023438 786.105469 Z M 44.023438 664.605469 " clip-rule="nonzero"/></clipPath><clipPath id="9cf8af5c9c"><path d="M 104.773438 664.605469 C 71.222656 664.605469 44.023438 691.804688 44.023438 725.355469 C 44.023438 758.910156 71.222656 786.105469 104.773438 786.105469 C 138.324219 786.105469 165.523438 758.910156 165.523438 725.355469 C 165.523438 691.804688 138.324219 664.605469 104.773438 664.605469 Z M 104.773438 664.605469 " clip-rule="nonzero"/></clipPath><clipPath id="8e81373cd4"><path d="M 191.164062 283.5 L 346.753906 283.5 L 346.753906 439.089844 L 191.164062 439.089844 Z M 191.164062 283.5 " clip-rule="nonzero"/></clipPath><clipPath id="39ca1161ae"><path d="M 268.960938 283.5 C 225.996094 283.5 191.164062 318.328125 191.164062 361.292969 C 191.164062 404.257812 225.996094 439.089844 268.960938 439.089844 C 311.925781 439.089844 346.753906 404.257812 346.753906 361.292969 C 346.753906 318.328125 311.925781 283.5 268.960938 283.5 Z M 268.960938 283.5 " clip-rule="nonzero"/></clipPath><clipPath id="dfee0997f1"><path d="M 1168.472656 505.230469 L 1440 505.230469 L 1440 810 L 1168.472656 810 Z M 1168.472656 505.230469 " clip-rule="nonzero"/></clipPath><clipPath id="543c707390"><path d="M 1350.429688 505.230469 C 1249.9375 505.230469 1168.472656 586.695312 1168.472656 687.1875 C 1168.472656 787.679688 1249.9375 869.148438 1350.429688 869.148438 C 1450.921875 869.148438 1532.390625 787.679688 1532.390625 687.1875 C 1532.390625 586.695312 1450.921875 505.230469 1350.429688 505.230469 Z M 1350.429688 505.230469 " clip-rule="nonzero"/></clipPath><clipPath id="5dd8973378"><path d="M 1072.394531 0 L 1272.78125 0 L 1272.78125 181.195312 L 1072.394531 181.195312 Z M 1072.394531 0 " clip-rule="nonzero"/></clipPath><clipPath id="b92990cbf0"><path d="M 1172.585938 -19.195312 C 1117.25 -19.195312 1072.394531 25.664062 1072.394531 81 C 1072.394531 136.335938 1117.25 181.195312 1172.585938 181.195312 C 1227.921875 181.195312 1272.78125 136.335938 1272.78125 81 C 1272.78125 25.664062 1227.921875 -19.195312 1172.585938 -19.195312 Z M 1172.585938 -19.195312 " clip-rule="nonzero"/></clipPath><clipPath id="5810e3efa3"><path d="M 895.097656 618.132812 L 1033.203125 618.132812 L 1033.203125 756.242188 L 895.097656 756.242188 Z M 895.097656 618.132812 " clip-rule="nonzero"/></clipPath><clipPath id="12ade4c1b4"><path d="M 964.152344 618.132812 C 926.011719 618.132812 895.097656 649.050781 895.097656 687.1875 C 895.097656 725.324219 926.011719 756.242188 964.152344 756.242188 C 1002.289062 756.242188 1033.203125 725.324219 1033.203125 687.1875 C 1033.203125 649.050781 1002.289062 618.132812 964.152344 618.132812 Z M 964.152344 618.132812 " clip-rule="nonzero"/></clipPath><clipPath id="d0a4e430f0"><path d="M 959.925781 326.625 L 1072.394531 326.625 L 1072.394531 439.089844 L 959.925781 439.089844 Z M 959.925781 326.625 " clip-rule="nonzero"/></clipPath><clipPath id="a8dd400831"><path d="M 1016.160156 326.625 C 985.101562 326.625 959.925781 351.800781 959.925781 382.855469 C 959.925781 413.914062 985.101562 439.089844 1016.160156 439.089844 C 1047.214844 439.089844 1072.394531 413.914062 1072.394531 382.855469 C 1072.394531 351.800781 1047.214844 326.625 1016.160156 326.625 Z M 1016.160156 326.625 " clip-rule="nonzero"/></clipPath><clipPath id="08cf9a3f74"><path d="M 398.621094 560.589844 L 476.996094 560.589844 L 476.996094 638.964844 L 398.621094 638.964844 Z M 398.621094 560.589844 " clip-rule="nonzero"/></clipPath><clipPath id="fb2b953ff3"><path d="M 437.808594 560.589844 C 416.164062 560.589844 398.621094 578.132812 398.621094 599.777344 C 398.621094 621.421875 416.164062 638.964844 437.808594 638.964844 C 459.449219 638.964844 476.996094 621.421875 476.996094 599.777344 C 476.996094 578.132812 459.449219 560.589844 437.808594 560.589844 Z M 437.808594 560.589844 " clip-rule="nonzero"/></clipPath><clipPath id="65742c8d57"><path d="M 346.753906 116.074219 L 476.996094 116.074219 L 476.996094 246.3125 L 346.753906 246.3125 Z M 346.753906 116.074219 " clip-rule="nonzero"/></clipPath><clipPath id="06809a7db2"><path d="M 411.875 116.074219 C 375.910156 116.074219 346.753906 145.230469 346.753906 181.195312 C 346.753906 217.160156 375.910156 246.3125 411.875 246.3125 C 447.839844 246.3125 476.996094 217.160156 476.996094 181.195312 C 476.996094 145.230469 447.839844 116.074219 411.875 116.074219 Z M 411.875 116.074219 " clip-rule="nonzero"/></clipPath></defs><rect x="-144" width="1728" fill="#ffffff" y="-80.999999" height="971.999992" fill-opacity="1"/><rect x="-144" width="1728" fill="#ebebeb" y="-80.999999" height="971.999992" fill-opacity="1"/><g clip-path="url(#1526bfb01d)"><g clip-path="url(#30b83359a6)"><path fill="#e7ec1c" d="M -77.476562 -40.5 L 165.523438 -40.5 L 165.523438 202.5 L -77.476562 202.5 Z M -77.476562 -40.5 " fill-opacity="1" fill-rule="nonzero"/></g></g><g clip-path="url(#5522683b70)"><g clip-path="url(#9cf8af5c9c)"><path fill="#11b0e7" d="M 44.023438 664.605469 L 165.523438 664.605469 L 165.523438 786.105469 L 44.023438 786.105469 Z M 44.023438 664.605469 " fill-opacity="1" fill-rule="nonzero"/></g></g><g clip-path="url(#8e81373cd4)"><g clip-path="url(#39ca1161ae)"><path fill="#055c29" d="M 191.164062 283.5 L 346.753906 283.5 L 346.753906 439.089844 L 191.164062 439.089844 Z M 191.164062 283.5 " fill-opacity="1" fill-rule="nonzero"/></g></g><g clip-path="url(#dfee0997f1)"><g clip-path="url(#543c707390)"><path fill="#ed161f" d="M 1168.472656 505.230469 L 1532.390625 505.230469 L 1532.390625 869.148438 L 1168.472656 869.148438 Z M 1168.472656 505.230469 " fill-opacity="1" fill-rule="nonzero"/></g></g><g clip-path="url(#5dd8973378)"><g clip-path="url(#b92990cbf0)"><path fill="#11b0e7" d="M 1072.394531 -19.195312 L 1272.78125 -19.195312 L 1272.78125 181.195312 L 1072.394531 181.195312 Z M 1072.394531 -19.195312 " fill-opacity="1" fill-rule="nonzero"/></g></g><g clip-path="url(#5810e3efa3)"><g clip-path="url(#12ade4c1b4)"><path fill="#e7ec1c" d="M 895.097656 618.132812 L 1033.203125 618.132812 L 1033.203125 756.242188 L 895.097656 756.242188 Z M 895.097656 618.132812 " fill-opacity="1" fill-rule="nonzero"/></g></g><g clip-path="url(#d0a4e430f0)"><g clip-path="url(#a8dd400831)"><path fill="#055c29" d="M 959.925781 326.625 L 1072.394531 326.625 L 1072.394531 439.089844 L 959.925781 439.089844 Z M 959.925781 326.625 " fill-opacity="1" fill-rule="nonzero"/></g></g><g clip-path="url(#08cf9a3f74)"><g clip-path="url(#fb2b953ff3)"><path fill="#ed161f" d="M 398.621094 560.589844 L 476.996094 560.589844 L 476.996094 638.964844 L 398.621094 638.964844 Z M 398.621094 560.589844 " fill-opacity="1" fill-rule="nonzero"/></g></g><g clip-path="url(#65742c8d57)"><g clip-path="url(#06809a7db2)"><path fill="#ed161f" d="M 346.753906 116.074219 L 476.996094 116.074219 L 476.996094 246.3125 L 346.753906 246.3125 Z M 346.753906 116.074219 " fill-opacity="1" fill-rule="nonzero"/></g></g></svg>